<?xml version="1.0" encoding="UTF-8" standalone="no"?>
<svg
   xmlns:dc="http://purl.org/dc/elements/1.1/"
   xmlns:cc="http://creativecommons.org/ns#"
   xmlns:rdf="http://www.w3.org/1999/02/22-rdf-syntax-ns#"
   xmlns:svg="http://www.w3.org/2000/svg"
   xmlns="http://www.w3.org/2000/svg"
   xmlns:sodipodi="http://sodipodi.sourceforge.net/DTD/sodipodi-0.dtd"
   xmlns:inkscape="http://www.inkscape.org/namespaces/inkscape"
   aria-hidden="true"
   data-prefix="fas"
   data-icon="arrow-right"
   class="svg-inline--fa fa-arrow-right fa-w-14"
   role="img"
   viewBox="0 0 448 512"
   version="1.1"
   id="svg22"
   sodipodi:docname="arrow-right-solid.svg"
   inkscape:version="0.92.3 (2405546, 2018-03-11)">
  <metadata
     id="metadata28">
    <rdf:RDF>
      <cc:Work
         rdf:about="">
        <dc:format>image/svg+xml</dc:format>
        <dc:type
           rdf:resource="http://purl.org/dc/dcmitype/StillImage" />
      </cc:Work>
    </rdf:RDF>
  </metadata>
  <defs
     id="defs26" />
  <sodipodi:namedview
     pagecolor="#ffffff"
     bordercolor="#666666"
     borderopacity="1"
     objecttolerance="10"
     gridtolerance="10"
     guidetolerance="10"
     inkscape:pageopacity="0"
     inkscape:pageshadow="2"
     inkscape:window-width="1920"
     inkscape:window-height="1017"
     id="namedview24"
     showgrid="false"
     inkscape:zoom="0.828125"
     inkscape:cx="448.06281"
     inkscape:cy="531.9877"
     inkscape:window-x="-8"
     inkscape:window-y="-8"
     inkscape:window-maximized="1"
     inkscape:current-layer="svg22" />
  <path
     fill="currentColor"
     d="M190.5 66.9l22.2-22.2c9.4-9.4 24.6-9.4 33.9 0L441 239c9.4 9.4 9.4 24.6 0 33.9L246.6 467.3c-9.4 9.4-24.6 9.4-33.9 0l-22.2-22.2c-9.5-9.5-9.3-25 .4-34.3L311.4 296H24c-13.3 0-24-10.7-24-24v-32c0-13.3 10.7-24 24-24h287.4L190.9 101.2c-9.8-9.3-10-24.8-.4-34.3z"
     id="path20"
     style="fill:#ffffff" />
  <path
     style="fill:#ffffff;stroke-width:0.60377359"
     d="m 223.5684,473.23111 c -1.81837,-0.50974 -4.3995,-1.57585 -5.73585,-2.36913 -3.95808,-2.34959 -30.09903,-29.12498 -31.64904,-32.41716 -3.14714,-6.68449 -3.02441,-14.5489 0.33191,-21.26784 1.81036,-3.62411 -2.80797,0.89119 69.71398,-68.15879 30.42443,-28.96788 55.20085,-52.87264 55.05871,-53.12169 -0.14214,-0.24906 -65.86429,-0.45284 -146.04922,-0.45284 -144.104834,0 -145.830387,-0.0139 -149.216715,-1.20412 -7.1364536,-2.50826 -12.992051,-9.00808 -14.9394981,-16.58311 -1.33179132,-5.18029 -1.34166163,-38.32221 -0.012933,-43.42354 1.7867564,-6.85982 6.8512573,-12.87225 13.4466941,-15.96353 l 3.452416,-1.61815 146.964946,-0.30188 146.96494,-0.30189 -61.32212,-58.42293 C 213.7861,122.57339 188.51875,98.055028 187.41534,96.335522 c -2.14149,-3.337233 -3.71064,-8.818691 -3.71064,-12.962284 0,-3.620446 1.94627,-9.529898 4.21076,-12.785166 0.94318,-1.355839 7.66703,-8.366543 14.9419,-15.579343 16.09379,-15.956491 16.92875,-16.470725 26.74355,-16.470725 11.31512,0 0.12449,-10.194563 114.46624,104.277756 113.36363,113.49309 103.15613,102.30551 103.17445,113.08074 0.009,5.3818 -0.18092,6.46409 -1.74968,9.96226 -1.67196,3.72834 -6.6672,8.83814 -99.92453,102.21614 -53.99051,54.06039 -99.57327,99.38542 -101.29501,100.72229 -5.92907,4.60372 -13.96174,6.32398 -20.70398,4.43392 z"
     id="path34"
     inkscape:connector-curvature="0" />
</svg>
